<?xml version="1.0" encoding="UTF-8"?>
<svg xmlns="http://www.w3.org/2000/svg" viewBox="0 0 200 200" width="200" height="200">
  <rect width="200" height="200" fill="#F5EDE0" rx="44"></rect>
  <ellipse cx="62" cy="78" rx="22" ry="32" fill="#8B5E3C" transform="rotate(-15 62 78)"></ellipse>
  <ellipse cx="138" cy="78" rx="22" ry="32" fill="#8B5E3C" transform="rotate(15 138 78)"></ellipse>
  <circle cx="100" cy="110" r="52" fill="#D4B896"></circle>
  <ellipse cx="64" cy="82" rx="10" ry="18" fill="#3D2817" transform="rotate(-15 64 82)" opacity="0.4"></ellipse>
  <ellipse cx="136" cy="82" rx="10" ry="18" fill="#3D2817" transform="rotate(15 136 82)" opacity="0.4"></ellipse>
  <path d="M 78 105 Q 84 99 90 105" stroke="#3D2817" stroke-width="3.5" fill="none" stroke-linecap="round"></path>
    <path d="M 110 105 Q 116 99 122 105" stroke="#3D2817" stroke-width="3.5" fill="none" stroke-linecap="round"></path>
  <ellipse cx="100" cy="124" rx="6" ry="4.5" fill="#3D2817"></ellipse>
  <path d="M 100 128 Q 100 138 92 138" stroke="#3D2817" stroke-width="2.5" fill="none" stroke-linecap="round"></path>
  <path d="M 100 128 Q 100 138 108 138" stroke="#3D2817" stroke-width="2.5" fill="none" stroke-linecap="round"></path>
</svg>